<svg height="100" width="100" xmlns="http://www.w3.org/2000/svg" viewBox="0 0 620 560"><path d="M574 117.7c-38.8-35.7-63.3-3.1-83.5 17.3-3.5 3.6-1.4 9.6 3.6 10.1 18.1 1.8 51.5 10.7 57.4 51.1.7 4.9 6.9 6.9 10.3 3.2 23.6-25.3 54.4-45.9 12.2-81.7z"/><path d="m512.7 170.9-194.1 187c-2.7 2.6-2.4 7.1.7 9.2l14.3 9.9c1.2.8 2.1 2.1 2.4 3.6l4.1 17.8c.4 1.9-.1 4-1.5 5.4l-9.8 10.5c-.7.7-1.5 1.3-2.5 1.6l-16.3 5.4c-2.1.7-4.5.2-6.1-1.4l-26-25.9c-1.5-1.5-2.1-3.6-1.6-5.6l2.7-11.9c.3-1.1.8-2.1 1.6-2.9L486.4 168c3.6-3.6 1.4-9.7-3.7-10.2-2.8-.3-5.8-.4-8.8-.5-1.6 0-3.2.6-4.4 1.7L270.3 358.3c-.7.7-1.3 1.7-1.5 2.7l-18.9 69.5c-.7 2.7-3.2 4.4-6 4.3h-.1C115 435.2 77.1 408 75 391.6c-2-15.8 24.3-39 87.6-55.1 33.8-8.6 48.7-18.3 48-31.3-1.4-30-111.4-50.2-158.6-57.5-4.1-.6-7.8 2.2-8.5 6.2-.6 4.1 2.2 7.8 6.2 8.5 64.6 10 124.7 26.6 141.5 38.1 3.5 2.4 3.4 7.7-.3 10-4.7 2.9-13.9 7.1-32 11.7-65.3 16.7-102.2 43.4-98.6 71.4 4.5 35.2 71.5 56.1 179.5 56.1h4.2c.3 0 .5-.1.8-.2l1.1-.3c.3-.1.7-.1 1-.3l86.3-21c1.1-.3 2-.8 2.8-1.6l202.1-202.1c.9-.9 1.5-2.2 1.7-3.5.9-7.6 2.4-34.1-19.4-50.4-2.3-1.6-5.6-1.4-7.7.6z"/></svg>
