<svg xmlns="http://www.w3.org/2000/svg" xmlns:xlink="http://www.w3.org/1999/xlink" width="32" height="32" viewBox="0 0 100 100" enable-background="new 0 0 100 100" xml:space="preserve"><path  d="M61.926,27c0,1.1-0.867,2-1.926,2H12.926C11.867,29,11,28.1,11,27v-2c0-1.1,0.867-2,1.926-2H60  c1.059,0,1.926,0.9,1.926,2V27z"></path><path  d="M53,43c0,1.1-0.859,2-1.909,2H12.909C11.859,45,11,44.1,11,43v-2c0-1.1,0.859-2,1.909-2h38.182  C52.141,39,53,39.9,53,41V43z"></path><path  d="M41,59c0,1.1-0.9,2-2,2H13c-1.1,0-2-0.9-2-2v-2c0-1.1,0.9-2,2-2h26c1.1,0,2,0.9,2,2V59z"></path><path  d="M32,75c0,1.1-0.9,2-2,2H13c-1.1,0-2-0.9-2-2v-2c0-1.1,0.9-2,2-2h17c1.1,0,2,0.9,2,2V75z"></path><g><path d="M40,65"></path><path stroke-width="6" stroke-miterlimit="10" d="M40,65"></path></g><path d="M87.414,57.414l-2.828-2.828c-0.389-0.389-1.025-0.389-1.414,0L77,60.757V24c0-0.55-0.45-1-1-1h-4  c-0.55,0-1,0.45-1,1v36.757l-6.172-6.172c-0.389-0.389-1.025-0.389-1.414,0l-2.828,2.828c-0.389,0.389-0.389,1.025,0,1.414  l11.293,11.293C72.465,70.707,73.232,71,74,71s1.535-0.293,2.121-0.879l11.293-11.293C87.803,58.439,87.803,57.803,87.414,57.414z"></path></svg>