<svg height='100px' width='100px'  fill="#000000" xmlns="http://www.w3.org/2000/svg" xmlns:xlink="http://www.w3.org/1999/xlink" version="1.1" x="0px" y="0px" viewBox="0 0 500 500" style="enable-background:new 0 0 500 500;" xml:space="preserve"><g><path d="M360.2,358.6c-22.4-12.9-45.2-25.9-67.6-38.6c-3-1.7-6.2-2.8-9.6-3.3c-0.1,0-0.2,0-0.2,0c-9.6-1.3-19.3,1.1-27.3,6.7   c-8.6,5.4-16.2,10.3-23.1,15c-21.3-14.7-41.6-31.3-60.2-49.3c0,0-0.1-0.1-0.1-0.1c-6.8-6.4-13.5-13.4-19.9-20.2   c-2.5-2.6-5-5.3-7.6-8c1.9-3.8,3.7-7.6,5.4-11.3l0.9-2c0.5-1.1,1-2.1,1.5-3.2c1.8-3.7,3.6-7.5,5.2-11.6c5.4-12.4,3.3-27-5.3-37.3   c-11.9-14.9-23.5-30.3-34.8-45.3c-3.1-4.1-6.2-8.2-9.3-12.3c-4.3-5.7-10.6-9.5-17.7-10.6c-11.1-2.2-22.6,1.1-30.8,8.9   c-8.3,7.6-15.1,14.1-21.3,20.6C28.8,166.8,19,177.8,14,192.9c-0.4,1.2-0.6,2.5-0.5,3.8l0.7,10.2c0,0.7,0.2,1.4,0.4,2.1   c0.5,1.8,1,3.6,1.5,5.5c1,3.9,2.1,8,3.5,12.1c7.1,20.8,18.5,40.7,36.7,64.4c0,0,0.1,0.1,0.1,0.1c21.5,27.2,45.8,52.4,72.2,75   c33.8,29.6,63.2,51,92.5,67.4c20.2,11.8,42.1,20.2,65,24.8c0.1,0,0.2,0,0.2,0c3.7,0.7,7.3,1.1,10.7,1.5c1.5,0.2,3,0.4,4.6,0.5   c0.4,0.1,0.9,0.1,1.3,0.1c0.2,0,0.4,0,0.6,0l10.2-0.7c1.6-0.1,3.2-0.6,4.5-1.4c4.8-2.9,9.5-6.2,13.8-9.7c0.2-0.1,0.4-0.3,0.5-0.5   c14.2-13.2,26.5-28.3,36.6-44.8c0,0,0-0.1,0.1-0.1c1.7-3,3-6.2,3.8-9.5C376.7,379.5,371.2,364.8,360.2,358.6z"></path><path d="M313.9,51.1l-59.4,0.3c-52.8,0.1-95.7,43.2-95.6,96c0.1,41.4,26.5,77.5,65,90.5l0.1,54.7c0,4,2.3,7.5,6,9.1   c1.3,0.6,2.7,0.9,4.1,0.9c2.4,0,4.8-0.9,6.7-2.6l62.9-57.2l10.6-0.2c52.8-0.1,95.7-43.2,95.6-96C409.8,93.9,366.7,51,313.9,51.1z    M251.7,168.1c-10.9,0-19.8-8.8-19.8-19.8s8.8-19.8,19.8-19.8s19.8,8.8,19.8,19.8S262.6,168.1,251.7,168.1z M324.9,168.1   c-10.9,0-19.8-8.8-19.8-19.8s8.8-19.8,19.8-19.8s19.8,8.8,19.8,19.8S335.9,168.1,324.9,168.1z"></path></g></svg>