<svg height='100px' width='100px'  fill="#000000" xmlns:x="http://ns.adobe.com/Extensibility/1.0/" xmlns:i="http://ns.adobe.com/AdobeIllustrator/10.0/" xmlns:graph="http://ns.adobe.com/Graphs/1.0/" xmlns="http://www.w3.org/2000/svg" xmlns:xlink="http://www.w3.org/1999/xlink" version="1.1" x="0px" y="0px" viewBox="0 0 100 100" style="enable-background:new 0 0 100 100;" xml:space="preserve"><g><g i:extraneous="self"><g><path d="M96.5,20.4L78.4,9.9c-0.7-0.4-1.5-0.4-2.1,0l-17,9.9l-17-9.9c-0.7-0.4-1.5-0.4-2.1,0L22,20.4c-0.6,0.4-1,1.1-1,1.8v21     c0.6-0.2,1.2-0.2,1.9-0.2c2,0,4,0.8,5.4,2.2l17.7,17.7c2.2,2.2,2.8,5.5,1.7,8.3c-0.8,1.9-2.3,3.4-4.2,4.2v13c0,0.7-0.1,1.4-0.3,2     h52.3c1.2,0,2.1-0.9,2.1-2.1V22.2C97.5,21.5,97.1,20.8,96.5,20.4z M37.8,35.7c0,0.5-0.4,0.8-0.8,0.8h-6.7c-0.5,0-0.8-0.4-0.8-0.8     V29c0-0.5,0.4-0.8,0.8-0.8h6.7c0.5,0,0.8,0.4,0.8,0.8V35.7z M52.9,50.9c0,0.5-0.4,0.8-0.8,0.8h-6.7c-0.5,0-0.8-0.4-0.8-0.8v-6.7     c0-0.5,0.4-0.8,0.8-0.8h6.7c0.5,0,0.8,0.4,0.8,0.8V50.9z M52.9,35.7c0,0.5-0.4,0.8-0.8,0.8h-6.7c-0.5,0-0.8-0.4-0.8-0.8V29     c0-0.5,0.4-0.8,0.8-0.8h6.7c0.5,0,0.8,0.4,0.8,0.8V35.7z M73.9,81.2c0,0.5-0.4,0.8-0.8,0.8h-6.7c-0.5,0-0.8-0.4-0.8-0.8v-6.7     c0-0.5,0.4-0.8,0.8-0.8h6.7c0.5,0,0.8,0.4,0.8,0.8V81.2z M73.9,66c0,0.5-0.4,0.8-0.8,0.8h-6.7c-0.5,0-0.8-0.4-0.8-0.8v-6.7     c0-0.5,0.4-0.8,0.8-0.8h6.7c0.5,0,0.8,0.4,0.8,0.8V66z M73.9,50.9c0,0.5-0.4,0.8-0.8,0.8h-6.7c-0.5,0-0.8-0.4-0.8-0.8v-6.7     c0-0.5,0.4-0.8,0.8-0.8h6.7c0.5,0,0.8,0.4,0.8,0.8V50.9z M73.9,35.7c0,0.5-0.4,0.8-0.8,0.8h-6.7c-0.5,0-0.8-0.4-0.8-0.8V29     c0-0.5,0.4-0.8,0.8-0.8h6.7c0.5,0,0.8,0.4,0.8,0.8V35.7z M89.1,81.2c0,0.5-0.4,0.8-0.8,0.8h-6.7c-0.5,0-0.8-0.4-0.8-0.8v-6.7     c0-0.5,0.4-0.8,0.8-0.8h6.7c0.5,0,0.8,0.4,0.8,0.8V81.2z M89.1,66c0,0.5-0.4,0.8-0.8,0.8h-6.7c-0.5,0-0.8-0.4-0.8-0.8v-6.7     c0-0.5,0.4-0.8,0.8-0.8h6.7c0.5,0,0.8,0.4,0.8,0.8V66z M89.1,50.9c0,0.5-0.4,0.8-0.8,0.8h-6.7c-0.5,0-0.8-0.4-0.8-0.8v-6.7     c0-0.5,0.4-0.8,0.8-0.8h6.7c0.5,0,0.8,0.4,0.8,0.8V50.9z M89.1,35.7c0,0.5-0.4,0.8-0.8,0.8h-6.7c-0.5,0-0.8-0.4-0.8-0.8V29     c0-0.5,0.4-0.8,0.8-0.8h6.7c0.5,0,0.8,0.4,0.8,0.8V35.7z"></path><path d="M42.4,66.5L24.6,48.8c-1-1-2.6-1-3.6,0L3.3,66.5c-1.6,1.6-0.5,4.4,1.8,4.4h2.2v17.5c0,1.1,0.9,2,2,2h7.4     c0.9,0,1.7-0.8,1.7-1.7V78.3c0-0.8,0.7-1.5,1.5-1.5h5.9c0.8,0,1.5,0.7,1.5,1.5v10.4c0,0.9,0.8,1.7,1.7,1.7h7.4c1.1,0,2-0.9,2-2     V70.9h2.2C42.8,70.9,44,68.1,42.4,66.5z"></path></g></g></g></svg>