<svg xmlns="http://www.w3.org/2000/svg" viewBox="0 0 100 100" ><path d="M36.221,16.615c-0.579-0.191-1.201-0.191-1.779,0c-1.719,0.579-16.8,6.849-17.267,48.911  c0.352,6.227,4.603,18.003,18.156,18.003c13.553,0,17.804-11.776,18.161-18.194C53.018,23.464,37.939,17.194,36.221,16.615z"></path><path d="M35.331,77.941c-1.545,0-2.794,1.249-2.794,2.794v13.971c0,1.544,1.249,2.794,2.794,2.794c1.544,0,2.794-1.25,2.794-2.794  V80.735C38.125,79.19,36.875,77.941,35.331,77.941z"></path><path d="M66.865,3.57c-0.543-0.696-1.399-1.073-2.262-1.07c-0.881,0.022-1.7,0.456-2.21,1.173  c-0.573,0.805-14.02,20.167-14.486,61.599c-0.014,0.338-0.224,8.344,4.936,13.684c2.934,3.034,6.912,4.573,11.826,4.573  c13.554,0,17.805-11.776,18.162-18.194C82.358,23.77,67.499,4.375,66.865,3.57z"></path><path d="M64.669,77.941c-1.544,0-2.794,1.249-2.794,2.794v13.971c0,1.544,1.25,2.794,2.794,2.794c1.545,0,2.794-1.25,2.794-2.794  V80.735C67.463,79.19,66.214,77.941,64.669,77.941z"></path><g><path d="M94.706,97.5H5.294C3.75,97.5,2.5,96.25,2.5,94.706c0-1.545,1.25-2.794,2.794-2.794h89.412   c1.544,0,2.794,1.249,2.794,2.794C97.5,96.25,96.25,97.5,94.706,97.5z"></path></g></svg>