<svg xmlns="http://www.w3.org/2000/svg" viewBox="0 0 6.3499999 6.3500002" width="100" height="100"><g transform="translate(0,-290.64999)"><path d="m 1.8222375,291.18093 c -0.1353783,0.0155 -0.2365367,0.13132 -0.2341171,0.26741 v 0.26535 H 0.7927425 c -0.00846,-4.1e-4 -0.0168643,-4.1e-4 -0.0253239,0 -0.13542887,0.0135 -0.23844878,0.12785 -0.23825165,0.2638 v 4.23005 c 5.1559e-4,0.14526 0.11815376,0.26277 0.26357554,0.26328 H 5.5572578 c 0.1454218,-5e-4 0.2630599,-0.11802 0.2635756,-0.26328 v -4.23005 c -5.102e-4,-0.14526 -0.1181498,-0.26329 -0.2635756,-0.2638 H 4.76188 v -0.26535 c 0.00285,-0.15987 -0.1355667,-0.28575 -0.2945846,-0.26741 -0.1353783,0.0155 -0.2370533,0.13132 -0.2346337,0.26741 v 0.26535 h -2.115323 v -0.26535 c 0.00285,-0.15987 -0.1360834,-0.28575 -0.2951012,-0.26741 z m -0.7633354,1.0619 h 0.5292183 v 0.26328 c 0,0.35251 0.5292183,0.35251 0.5292183,0 v -0.26328 h 2.115323 v 0.26328 c 0,0.35251 0.5292183,0.35251 0.5292183,0 v -0.26328 h 0.5297351 v 1.05519 h -4.232713 z m 0,1.58433 h 4.232713 v 2.11504 h -4.232713 z"></path></g></svg>