<svg xmlns="http://www.w3.org/2000/svg" viewBox="0 0 142 140"><path d="M51.84965 88.25115V37.21471c-20.49928 3.71466-36.04504 21.62066-36.04504 43.15031 0 24.22328 19.67829 43.8627 43.94734 43.8627 21.5707 0 39.51978-15.51949 43.24367-35.97657H51.84965zm67.65952-15.77227v7.88614c0 32.9295-26.76022 59.63498-59.75722 59.63498C26.75401 140 0 113.29884 0 80.36502c0-32.93308 26.75325-59.62973 59.75195-59.62973h7.9023v51.74359h51.85492zm-45.75434-4.95776V0h7.9023c32.99507 0 59.75115 26.70323 59.75722 59.63353l.00146 7.88759H73.75483zm18.47016-37.18253c0-2.51793.96843-3.91678 2.58249-3.91678 1.5495 0 2.53946 1.35581 2.53946 3.9383v.25825c0 2.5825-1.033 3.93831-2.56098 3.93831-1.54949 0-2.56097-1.39885-2.56097-3.98135v-.23673zm-3.80918.45194c0 4.08895 2.34576 7.20947 6.32711 7.20947 4.15352 0 6.43472-3.33572 6.43472-7.16643v-.68866c0-4.08896-2.38881-7.14491-6.34863-7.14491-3.98135 0-6.4132 3.07747-6.4132 7.12339v.66714zm25.04734 16.65567c0-2.51794.96844-3.91679 2.5825-3.91679 1.5495 0 2.53945 1.35581 2.53945 3.93831v.23673c0 2.58249-1.033 3.95983-2.56097 3.95983-1.5495 0-2.56098-1.39886-2.56098-3.98135v-.23673zm-3.80918.45193c0 4.08896 2.34577 7.20947 6.32712 7.20947 4.15351 0 6.43472-3.35724 6.43472-7.18794v-.66715c0-4.11047-2.38881-7.14491-6.34864-7.14491-3.98135 0-6.4132 3.07748-6.4132 7.12339v.66714zm-13.38451 5.86514l10.82497-14.20373 11.81492-15.19369h-4.49785l-10.63128 13.90244-12.0086 15.49498h4.49784z"/></svg>