<svg xmlns="http://www.w3.org/2000/svg" viewBox="-55 147 500 500"><path d="M115.4 341.4h55c4.6 0 8.3-3.8 8.3-8.5v-45c0-20.1-16.1-36.5-35.8-36.5s-35.8 16.4-35.8 36.5v45c0 4.7 3.7 8.5 8.3 8.5zm8.4-53.5c0-10.8 8.6-19.5 19.2-19.5s19.2 8.8 19.2 19.5v36.5h-38.3l-.1-36.5zM219.6 341.4h55c4.6 0 8.3-3.8 8.3-8.5v-45c0-20.1-16.1-36.5-35.8-36.5-19.8 0-35.8 16.4-35.8 36.5v45c0 4.7 3.7 8.5 8.3 8.5zm8.3-53.5c0-10.8 8.6-19.5 19.2-19.5s19.2 8.8 19.2 19.5v36.5H228v-36.5h-.1zM219.6 463.7h55c4.6 0 8.3-3.8 8.3-8.5v-45c0-20.1-16.1-36.5-35.8-36.5-19.8 0-35.8 16.4-35.8 36.5v45c0 4.7 3.7 8.5 8.3 8.5zm8.3-53.5c0-10.8 8.6-19.5 19.2-19.5s19.2 8.8 19.2 19.5v36.5H228v-36.5h-.1zM219.6 585.9h55c4.6 0 8.3-3.8 8.3-8.5v-45c0-20.1-16.1-36.5-35.8-36.5-19.8 0-35.8 16.4-35.8 36.5v45c0 4.7 3.7 8.5 8.3 8.5zm8.3-53.5c0-10.8 8.6-19.5 19.2-19.5s19.2 8.8 19.2 19.5v36.5H228v-36.5h-.1z"/><path d="M436.7 630h-110V227.7h14.9c4.6 0 8.3-3.8 8.3-8.5v-63.7c0-4.7-3.7-8.5-8.3-8.5H48.3c-4.6 0-8.3 3.8-8.3 8.5v63.7c0 4.7 3.7 8.5 8.3 8.5h14.9v127.5c-15.1 1.2-29.1 7.1-38.7 16.4-8.2 7.9-12.7 18-12.7 28.4 0 2.7.3 5.3.9 7.9 1.4 6.4-1.4 12.3-4 16.1-5.4 7.8-8.2 16.6-8.2 25.5 0 3 .3 6 1 9 1.8 8.2-2.1 14.9-5.6 19-10.2 11.9-15.2 25.9-14.4 40.3 1.9 34.3 37.7 62.4 81.9 64.7V630H-46.7c-4.6 0-8.3 3.8-8.3 8.5s3.7 8.5 8.3 8.5h483.3c4.6 0 8.3-3.8 8.3-8.5.1-4.7-3.6-8.5-8.2-8.5zm-380-419.3V164h276.7v46.7H56.7zM-2 516.8c-.5-10 3-19.7 10.3-28.2 8.6-10 11.9-22 9.4-33.8-.4-1.7-.6-3.5-.6-5.3 0-5.5 1.7-10.8 5.2-15.7 6.5-9.3 8.9-19.9 6.7-29.7-.3-1.4-.5-2.8-.5-4.1 0-7.2 4.1-12.7 7.5-16.1 7.8-7.6 20.1-12 33.2-12 1 0 2 0 3 .1 19.5 1 36.1 12.3 37.6 25.8.2 2.1.1 4.2-.3 6.3-2.2 9.8.2 20.4 6.7 29.7 3.4 4.9 5.2 10.2 5.2 15.7 0 1.8-.2 3.6-.6 5.3-2.5 11.7.8 23.8 9.5 33.9 6.7 7.9 10.3 16.9 10.3 26.1 0 10.7-4.7 20.9-13.5 29.6-11.4 11.3-28.4 18.5-47.1 20.6v-37l30.5-31.1c3.4-3.4 3.4-9 0-12.4s-8.8-3.4-12.2 0L80 503.2v-25.5c0-4.9-3.9-8.8-8.6-8.8s-8.6 3.9-8.6 8.8v25L45 484.6c-3.4-3.4-8.8-3.4-12.2 0-3.4 3.4-3.4 9 0 12.4l30 30.6v38C27.5 563.1-.7 542.2-2 516.8zM310.1 630H79.9v-48c23-2.2 44.3-11.2 58.7-25.4 12.2-12 18.6-26.4 18.6-41.8 0-13.3-5-26.2-14.4-37.3-3.6-4.2-7.5-11-5.8-19.1.6-2.9.9-5.9.9-8.9 0-8.9-2.8-17.8-8.2-25.5-2.6-3.8-5.4-9.7-4-16.2.9-3.9 1.1-8 .6-12-2.3-20.4-21.4-36.5-46.5-40.1v-128h230.1V630h.2z"/></svg>