<svg xmlns="http://www.w3.org/2000/svg" viewBox="0 0 511.99998 511.99998"><path d="M119.420885-.00002c-8.68325.0188-14.83203 6.68228-14.83203 17.69141v379.52539c0 14.67885 10.93161 31.86399 24.22656 38.08594l159.00977 74.41601c13.29496 6.22195 24.22656-.7313 24.22656-15.41015v-64.42969h69.10352c14.41188 0 26.25586-11.84045 26.25586-26.25195v-377.375c0-14.4115-11.84398-26.25196-26.25586-26.25196h-249.41406c-2.29607 0-4.52337.30895-6.64063.86329-1.98009-.58456-3.88433-.86718-5.67969-.86329zm38.21875 15.35938h223.51563c6.17086 0 10.89648 4.72514 10.89648 10.89258v377.375c0 6.16745-4.72562 10.89258-10.89648 10.89258h-68.73242V111.36131c0-14.08139-8.58942-27.58184-21.34375-33.55078l-133.43946-62.45117zm-32.625 2.0918c.34905.005.7133.0457 1.08399.10546l158.4707 74.16407c5.99359 2.80495 12.49609 13.02576 12.49609 19.64062V422.1992a7.6800706 7.6800706 0 00.36914 2.33985v62.92968c0 6.01744-4.15924 8.66195-9.60937 6.11133l-159.00977-74.41601c-5.45013-2.55062-9.60937-9.08803-9.60937-15.10547V24.53319c0-4.51308 2.33959-7.1314 5.80859-7.08203zm136.67383 248.74023c-7.03297 0-12.61774 4.56609-15.94531 9.94922-3.32757 5.38313-5.04688 12.03609-5.04688 19.26562 0 7.22954 1.71931 13.8825 5.04688 19.26563 3.32757 5.38313 8.91234 9.94922 15.94531 9.94922 7.03298 0 12.61774-4.56609 15.94531-9.94922 3.32757-5.38313 5.04493-12.03609 5.04493-19.26563 0-7.22953-1.71736-13.88249-5.04493-19.26562-3.32757-5.38313-8.91233-9.94922-15.94531-9.94922zm0 15.35742c.31905 0 1.39044.2549 2.88086 2.66602 1.49043 2.41112 2.75195 6.52731 2.75195 11.1914 0 4.6641-1.26152 8.77834-2.75195 11.18946-1.49042 2.41112-2.56181 2.66601-2.88086 2.66601-.31904 0-1.39043-.25489-2.88086-2.66601-1.49042-2.41112-2.75195-6.52536-2.75195-11.18946 0-4.66409 1.26153-8.78028 2.75195-11.1914 1.49043-2.41112 2.56182-2.66602 2.88086-2.66602z" /></svg>