<svg xmlns="http://www.w3.org/2000/svg" viewBox="0 0 100 100"><path d="M5273.1 2400.1v-2c0-2.8-5-4-9.7-4s-9.7 1.3-9.7 4v2c0 1.8.7 3.6 2 4.9l5 4.9c.3.3.4.6.4 1v6.4c0 .4.2.7.6.8l2.9.9c.5.1 1-.2 1-.8v-7.2c0-.4.2-.7.4-1l5.1-5c1.3-1.3 2-3.1 2-4.9zm-9.7-.1c-4.8 0-7.4-1.3-7.5-1.8.1-.5 2.7-1.8 7.5-1.8s7.3 1.3 7.5 1.8c-.2.5-2.7 1.8-7.5 1.8z"/><path d="M5268.4 2410.3c-.6 0-1 .4-1 1s.4 1 1 1h4.3c.6 0 1-.4 1-1s-.4-1-1-1h-4.3zM5272.7 2413.7h-4.3c-.6 0-1 .4-1 1s.4 1 1 1h4.3c.6 0 1-.4 1-1s-.4-1-1-1zM5272.7 2417h-4.3c-.6 0-1 .4-1 1s.4 1 1 1h4.3c.6 0 1-.4 1-1 0-.5-.4-1-1-1z"/><g><path d="M96.9 49.4c-.1-2.2-1.9-3.9-4.1-4.2l-17.9-1.6-13.1-13.3c-1.8-1.8-4.3-2.9-6.8-2.9H33.3c-3.1 0-6 1.5-7.8 4l-8.4 11.9-10.4.8c-2.3.1-4.2 2.1-4.2 4.5v10.6c0 2.5 2 4.5 4.5 4.5h2.8c0-6.9 5.6-12.5 12.5-12.5s12.5 5.6 12.5 12.5h30.6c0-6.9 5.6-12.5 12.5-12.5s12.5 5.6 12.5 12.5H93c2.6 0 4.6-2.2 4.5-4.8l-.6-9.5zm-56.6-6.3H26.1l5.2-7.4c.4-.7 1.2-1 2-1h7v8.4zm7.1 0v-8.4h7.5c.7 0 1.3.3 1.8.7l7.6 7.7H47.4z"/><path d="M22.2 54.7c-4.9 0-8.9 4-8.9 8.9s4 8.9 8.9 8.9 8.9-4 8.9-8.9-3.9-8.9-8.9-8.9zm0 11.6c-1.5 0-2.7-1.2-2.7-2.7 0-1.5 1.2-2.7 2.7-2.7 1.5 0 2.7 1.2 2.7 2.7 0 1.5-1.2 2.7-2.7 2.7zM77.8 54.7c-4.9 0-8.9 4-8.9 8.9s4 8.9 8.9 8.9 8.9-4 8.9-8.9-4-8.9-8.9-8.9zm0 11.6c-1.5 0-2.7-1.2-2.7-2.7 0-1.5 1.2-2.7 2.7-2.7 1.5 0 2.7 1.2 2.7 2.7-.1 1.5-1.3 2.7-2.7 2.7z"/></g></svg>