<svg xmlns="http://www.w3.org/2000/svg" viewBox="0 0 64 64"><path d="M9.2 47.8C6.5 49.6 5.5 53 7 55.3c.8 1.3 2.3 2 4 2 1.3 0 2.6-.4 3.8-1.2 1.2-.8 2.2-2.1 2.7-3.5.4-1.4.3-2.9-.5-4-1.6-2.3-5-2.6-7.8-.8zm6.1 1.9c.4.6.5 1.4.2 2.3s-1 1.8-1.9 2.4c-1.8 1.2-4.1 1.1-5-.3-.9-1.4-.1-3.5 1.7-4.7.8-.5 1.7-.8 2.6-.8 1 0 1.9.4 2.4 1.1z"/><circle cx="20" cy="37" r="2"/><path d="M17 25.4c.8-1.1 1-2.6.5-4-.4-1.4-1.4-2.6-2.7-3.5-2.8-1.9-6.3-1.5-7.8.8s-.6 5.6 2.2 7.4c1.2.8 2.5 1.2 3.7 1.2 1.7 0 3.2-.6 4.1-1.9zm-1.7-1.2c-.9 1.4-3.2 1.5-5 .3-1.9-1.2-2.6-3.3-1.7-4.7.5-.7 1.4-1.1 2.4-1.1.9 0 1.8.3 2.6.8.9.6 1.6 1.5 1.9 2.4.3.8.2 1.7-.2 2.3zM45 8c-2.2 0-4 1.8-4 4s1.8 4 4 4 4-1.8 4-4-1.8-4-4-4zm0 6c-1.1 0-2-.9-2-2s.9-2 2-2 2 .9 2 2-.9 2-2 2z"/><path d="M61.3 19.8L48.7 3.7C47.8 2.6 46.4 2 45 2s-2.8.6-3.8 1.7l-12.5 16c-.5.5-.8 1.3-.8 2v4l-8 5.3-1.7-1.2c.8-.6 1.5-1.3 2.1-2.2 1.4-2 1.7-4.5 1.1-7-.6-2.5-2.2-4.6-4.4-6.1-4.6-3.1-10.5-2.2-13.3 1.9-2.7 4.1-1.3 10 3.3 13 .3.2 4.5 3.7 7.4 6.1l.3 1.4-.3 1.3c-2.9 2.4-7.1 5.9-7.4 6.1-4.6 3.1-6.1 8.9-3.3 13 1.6 2.5 4.4 3.8 7.4 3.8 2 0 4.1-.6 5.9-1.8 2.2-1.5 3.8-3.6 4.4-6.1.6-2.5.3-5-1.1-7-.6-.8-1.4-1.5-2.3-2.1l2-1.6 8 4.4v15h34V21.8c0-.8-.3-1.5-.7-2zm-33.4 8.3V34l-1.6 1.3-4.5-3 6.1-4.2zm-19.8-.2c-3.7-2.5-4.9-7.1-2.8-10.3 2.1-3.2 6.8-3.9 10.5-1.4 1.8 1.2 3.1 2.9 3.6 4.9s.2 3.9-.8 5.4c-.7 1-1.6 1.8-2.8 2.3l-1.7.7 35 23.4c-1.2 1.3-3.3 1.7-4.9.8L17 38.6l-.8-4.1-.3-.2c-2.8-2.3-7.5-6.2-7.8-6.4zm6.1 16.6l1.6.7c1.2.5 2.1 1.3 2.8 2.3 1 1.5 1.3 3.4.8 5.4s-1.8 3.7-3.6 4.9c-3.7 2.4-8.4 1.8-10.5-1.4-2.1-3.2-.9-7.8 2.8-10.3.3-.2 4.5-3.7 7.4-6l2.6 1.4-3.9 3zM60 60H30V48.1l5.1 2.8-.9 1.6 1.6 1 1-1.6 6.4 3.5c.9.5 1.9.7 2.9.7 1.9 0 3.9-.9 5-2.5l.8-1.2-10.8-7.2 12.7-20.7-1.6-1L39.4 44l-9.5-6.3V21.8c0-.2.1-.5.3-.7L42.8 5c.6-.6 1.4-1 2.2-1s1.7.4 2.2 1l12.5 16.1c.2.2.3.4.3.7V60z"/><path d="M39 26c-2.2 0-4 1.8-4 4s1.8 4 4 4 4-1.8 4-4-1.8-4-4-4zm0 6c-1.1 0-2-.9-2-2s.9-2 2-2 2 .9 2 2-.9 2-2 2zM51 42c-2.2 0-4 1.8-4 4s1.8 4 4 4 4-1.8 4-4-1.8-4-4-4zm0 6c-1.1 0-2-.9-2-2s.9-2 2-2 2 .9 2 2-.9 2-2 2z"/></svg>