<svg height='29' width='29' xmlns="http://www.w3.org/2000/svg" viewBox="0 0 29 29"><g><path d="M4,14v10c0,0.552-0.448,1-1,1l0,0c-0.552,0-1-0.448-1-1V14c0-0.552,0.448-1,1-1l0,0C3.552,13,4,13.448,4,14z"></path><rect x="2" y="14" width="25" height="9"></rect><path d="M4,6v6h2v-1c0-0.552,0.448-1,1-1h5.5c0.552,0,1,0.448,1,1v1.008h2V11c0-0.552,0.448-1,1-1H22c0.552,0,1,0.448,1,1v1h2V6   c0-1.105-0.895-2-2-2H6C4.895,4,4,4.895,4,6z"></path><path d="M27,14v10c0,0.552-0.448,1-1,1l0,0c-0.552,0-1-0.448-1-1V14c0-0.552,0.448-1,1-1l0,0C26.552,13,27,13.448,27,14z"></path></g></svg>