<svg xmlns="http://www.w3.org/2000/svg" viewBox="0 0 60 60"><path d="M38.7006226 50.7017822V48.291748c0-1.5700073-1.2700195-2.8399658-2.8300171-2.8399658h-.5V44.041748c0-1.5700073-1.2699585-2.8399658-2.8399658-2.8399658H11.1606445c-1.5599976 0-2.8300171 1.2699585-2.8300171 2.8399658v1.4100342h-.5c-1.5599976 0-2.8300171 1.2699585-2.8300171 2.8399658v2.4100342c0 .5499878.4400024 1 1 1h31.7000122c.5499879 0 1.0000001-.4500122 1.0000001-1zM51.6506348 33.041748c1.5499878 0 2.9500122-1.0899658 3.2799683-2.6699829.3699951-1.7999878-.789978-3.5800171-2.5999756-3.9500122l-25.1600342-5.2199707c.1200562-1.1100464.1800537-2.2200317.1700439-3.3300171l1.2699585.2600098c.0700073.0100098.1300049.0199585.2000122.0199585.2000122 0 .3900146-.0599976.5499878-.1699829.2200317-.1400146.3800049-.3699951.4300537-.6300049l1.039978-4.9899902c.0499878-.2600098 0-.5300293-.1500244-.75-.1399536-.2199707-.3699951-.3800049-.6300049-.4299927l-13.789978-2.8599854c-.539978-.1199951-1.0700073.2299805-1.1900024.7699585l-1.0299683 4.9899902c-.1100464.5400391.2399902 1.0700073.7799683 1.1900024l1.2700195.2600098c-1.8099976 4.0800171-2.7300415 8.5400391-2.7000122 13.0100098l-1.2700195-.2600098c-.2600098-.0599976-.5299683-.0100098-.75.1400146-.2299805.1400146-.3800049.3699951-.4400024.6300049L9.9006348 34.041748c-.1099854.539978.2299805 1.0700073.7799683 1.1799927l13.7900391 2.8699951c.0700073.0100098.1300049.0200195.1999512.0200195.2000122 0 .3900146-.0599976.5500488-.1699829.2199707-.1400146.3800049-.3699951.4299927-.6300049l1.039978-4.9899902c.1099854-.5400391-.2399902-1.0700073-.7799683-1.1799927l-1.2700195-.2600098c.4500122-1.0200195.8499756-2.0700073 1.1900024-3.1300049l25.1400146 5.2199707c.2299805.0499879.4599609.0700074.6799927.0700074z"/></svg>