<svg xmlns="http://www.w3.org/2000/svg" viewBox="0 0 100 100"><path d="M32.3 69.2h6.3v12.5h-6.3zM78.4 69.2h5.1v12.5h-5.1zM94.3 42.8l-6-15.1H50l15.9 15.1zM30.3 37.6h10.1v3.9H30.3z"/><path d="M65.2 46c-.2 0-.4-.1-.7-.1l-.1-.1c-.2-.1-.3-.2-.5-.3l-29-27.2L5.1 45.1v36.6h23.7V67.6c0-.9.8-1.6 1.7-1.6h9.9c1 0 1.7.7 1.7 1.6v14.1H75V67.1c0-.9.8-1.6 1.7-1.6h8c1 0 1.7.7 1.7 1.6v14.5h8.7V46H65.2zM26.9 62.9c0 .9-.8 1.6-1.7 1.6h-9.1c-1 0-1.7-.7-1.7-1.6v-7.2c0-.9.8-1.6 1.7-1.6h9.1c1 0 1.7.7 1.7 1.6v7.2zm15.3-18.1H28.6c-1 0-1.7-.7-1.7-1.6V36c0-.9.8-1.6 1.7-1.6h13.6c1 0 1.7.7 1.7 1.6v7.2c.1.9-.7 1.6-1.7 1.6zm14.3 17c0 .9-.8 1.6-1.7 1.6h-9.1c-1 0-1.7-.7-1.7-1.6v-7.2c0-.9.8-1.6 1.7-1.6h9.1c.9 0 1.7.7 1.7 1.6v7.2z"/><path d="M47.4 56.2H53v4h-5.6zM17.8 57.3h5.6v4h-5.6z"/></svg>