<svg xmlns="http://www.w3.org/2000/svg" viewBox="0 0 100 100"><path d="M85.1 33.7l-.4-.2c-2.6-1.5-5.7-2.8-9.2-3.9-6-7.5-15.2-12.3-25.6-12.3-10.3 0-19.6 4.8-25.6 12.3-3.5 1.1-6.6 2.4-9.2 3.9l-.4.2-.1.3c-1.7 2.7-2.8 8.8-2.8 16 0 7.2 1.1 13.3 2.8 16l.2.4.4.2c2.6 1.5 5.7 2.8 9.2 3.9 6 7.5 15.2 12.3 25.6 12.3 10.3 0 19.6-4.8 25.6-12.3 3.5-1.1 6.6-2.4 9.2-3.9l.4-.2.2-.4c1.7-2.7 2.8-8.8 2.8-16 0-7.2-1.1-13.3-2.8-16l-.3-.3zM50 70.4c-13 0-25.1-2.5-32.6-6.7-1-1.9-2-6.8-2-13.7 0-6.9 1-11.8 2-13.7 7.5-4.2 19.6-6.7 32.6-6.7s25.1 2.5 32.6 6.7c1 1.9 2 6.8 2 13.7 0 6.9-1 11.8-2 13.7-7.5 4.2-19.6 6.7-32.6 6.7z"/><path d="M50 38.2c-11.9 0-20.9 4.3-20.9 9.9 0 3.3 2.9 6.1 8.2 8 .9.3 1.9-.2 2.3-1.1.3-.9-.2-1.9-1.1-2.3-3.5-1.2-5.8-3-5.8-4.6 0-2.7 6.6-6.4 17.3-6.4 10.7 0 17.3 3.7 17.3 6.4 0 1.9-3.3 4.2-8.8 5.5l2.8-2.4c.7-.6.8-1.8.2-2.5-.6-.7-1.8-.8-2.5-.2L51.4 55c-.5.4-.7 1-.6 1.7.1.6.5 1.1 1.1 1.4l9.3 3.6c.2.1.4.1.6.1.7 0 1.4-.4 1.7-1.1.4-.9-.1-2-1-2.3l-3.2-1.2c7.1-1.6 11.5-4.9 11.5-9 .1-5.7-8.9-10-20.8-10z"/></svg>