<svg xmlns="http://www.w3.org/2000/svg" viewBox="0 0 100 100"><path d="M27.228 72.218c.385.345.863.525 1.356.525.22 0 .444-.036.662-.11.707-.239 1.212-.821 1.357-1.578.133-.697-.106-1.398-.64-1.877-3.304-2.962-5.956-6.679-7.671-10.748-.319-.758-1.051-1.248-1.903-1.248-.686 0-1.323.342-1.704.915-.374.563-.442 1.269-.182 1.888 1.944 4.627 4.961 8.858 8.725 12.233zM70.754 72.633c.219.074.442.11.662.11.492 0 .971-.181 1.356-.525 3.765-3.375 6.782-7.605 8.725-12.232.26-.62.193-1.326-.182-1.889-.381-.573-1.018-.915-1.704-.915h-.036c-.816 0-1.548.49-1.866 1.247-1.714 4.069-4.366 7.786-7.671 10.749-.533.478-.772 1.18-.636 1.899.14.736.645 1.317 1.352 1.556zM67.441 17.468C62.174 14.324 56.143 12.662 50 12.662s-12.174 1.662-17.441 4.805c-.604.36-.977.995-.998 1.697-.02.7.314 1.354.914 1.761.342.232.733.348 1.126.348.359 0 .72-.097 1.048-.292 4.638-2.768 9.946-4.232 15.351-4.232 5.405 0 10.713 1.463 15.351 4.232.685.409 1.518.387 2.193-.069.58-.394.915-1.047.895-1.748-.021-.701-.394-1.336-.998-1.696zM19.147 10.519h-1.63c-.03 0-.059.004-.089.005-4.191.048-7.586 3.468-7.586 7.669v3.303c0 4.232 3.442 7.674 7.674 7.674h1.63c4.232 0 7.674-3.442 7.674-7.674v-3.303c0-.862-.149-1.688-.413-2.463-1.027-3.026-3.89-5.211-7.26-5.211zM31.664 48.056v-6.183c0-5.33-4.336-9.666-9.666-9.666h-7.333c-1.77 0-3.426.487-4.854 1.321-1.1.642-2.06 1.494-2.828 2.503C5.745 37.656 5 39.677 5 41.873v6.183h26.664zM80.852 30.714h1.631c4.231 0 7.674-3.442 7.674-7.674v-3.303c0-4.231-3.442-7.674-7.674-7.674h-1.631c-.463 0-.914.048-1.354.127-1.853.332-3.477 1.326-4.614 2.734-1.064 1.318-1.705 2.991-1.705 4.812v3.303c-.001 4.232 3.442 7.675 7.673 7.675zM91.556 36.031c-.573-.484-1.205-.897-1.88-1.238-1.307-.661-2.779-1.042-4.342-1.042h-7.333c-5.33 0-9.666 4.336-9.666 9.666V49.6H95v-6.183c0-2.96-1.341-5.611-3.444-7.386zM50.815 70.595c4.232 0 7.674-3.442 7.674-7.674v-3.303c0-4.232-3.442-7.674-7.674-7.674h-1.63c-4.231 0-7.674 3.442-7.674 7.674v3.303c0 4.231 3.442 7.674 7.674 7.674h1.63zM36.667 83.298v6.183h26.665v-6.183c0-5.33-4.336-9.666-9.666-9.666h-7.333c-5.33.001-9.666 4.337-9.666 9.666z"/></svg>