<svg xmlns="http://www.w3.org/2000/svg" viewBox="0 0 8.4666667 8.4666669" width="100" height="100"><g><path d="m 0.26354937,1.5937013 a 0.26460979,0.26460979 0 0 0 -0.26406739085,0.263549 v 4.752165 A 0.26460979,0.26460979 0 0 0 0.26354937,6.8729653 H 6.4585193 a 0.26460979,0.26460979 0 0 0 0.214974,-0.107487 l 1.7420113,-2.375049 a 0.26460979,0.26460979 0 0 0 0,-0.314193 L 6.6734933,1.7011883 a 0.26460979,0.26460979 0 0 0 -0.214974,-0.107487 z m 2.13475353,1.144633 h 0.5291667 v 0.265617 0.04341 c 0.059642,0.01241 0.1184275,0.02596 0.1720823,0.04651 0.136824,0.05185 0.2448878,0.124396 0.3162591,0.222726 0.076703,0.103969 0.1189064,0.265275 0.1426263,0.409794 l 0.00982,0.06098 a 0.02646098,0.02646098 0 0 1 0,0.0036 0.02646098,0.02646098 0 0 1 0,0.0021 0.02646098,0.02646098 0 0 1 0,0.0057 0.02646098,0.02646098 0 0 1 -0.00207,0.0021 0.02646098,0.02646098 0 0 1 0,0.0021 0.02646098,0.02646098 0 0 1 -0.00155,0.0021 0.02646098,0.02646098 0 0 1 -0.00207,0.0016 0.02646098,0.02646098 0 0 1 -0.00207,0.0021 0.02646098,0.02646098 0 0 1 -0.00207,0.0021 0.02646098,0.02646098 0 0 1 -0.00207,0.0021 0.02646098,0.02646098 0 0 1 -0.00155,0.0015 0.02646098,0.02646098 0 0 1 -0.00258,0 0.02646098,0.02646098 0 0 1 -0.00568,0.0026 0.02646098,0.02646098 0 0 1 -0.00207,0 0.02646098,0.02646098 0 0 1 -0.00207,0 H 3.079396 a 0.02646098,0.02646098 0 0 1 -0.00362,0 0.02646098,0.02646098 0 0 1 -0.00207,0 0.02646098,0.02646098 0 0 1 -0.00568,-0.0026 0.02646098,0.02646098 0 0 1 -0.00207,0 0.02646098,0.02646098 0 0 1 -0.00207,-0.0015 0.02646098,0.02646098 0 0 1 -0.00207,-0.0021 0.02646098,0.02646098 0 0 1 -0.00155,-0.0021 0.02646098,0.02646098 0 0 1 -0.00207,-0.0021 0.02646098,0.02646098 0 0 1 -0.00207,-0.0016 0.02646098,0.02646098 0 0 1 0,-0.0021 0.02646098,0.02646098 0 0 1 -0.00207,-0.0062 0.02646098,0.02646098 0 0 1 -0.00207,-0.0016 l -0.00569,-0.04341 c -0.013782,-0.09422 -0.048964,-0.159483 -0.1111039,-0.208773 -0.058039,-0.04684 -0.1485794,-0.07441 -0.2775029,-0.07441 -0.1569667,0 -0.2594795,0.02828 -0.3064404,0.0646 -0.05797,0.04484 -0.076481,0.08341 -0.076481,0.132809 0,0.0309 0.00706,0.05218 0.027387,0.07803 a 0.02646098,0.02646098 0 0 1 0.00207,0 0.02646098,0.02646098 0 0 1 0.00207,0.0021 c 0.01764,0.02243 0.048948,0.04725 0.099219,0.06821 h 0.00207 c 0.02639,0.0097 0.1357154,0.04428 0.3105759,0.09198 0.2496608,0.06666 0.4195339,0.120928 0.5291666,0.167949 7.012e-4,3.17e-4 0.0034,-3.18e-4 0.00413,0 a 0.02646098,0.02646098 0 0 1 0.00362,0 0.02646098,0.02646098 0 0 1 0.00207,0 0.02646098,0.02646098 0 0 1 0.0062,0.0021 c 0.113665,0.04786 0.2053008,0.121335 0.2713011,0.216525 0.067688,0.09761 0.099735,0.218161 0.099735,0.353467 0,0.135679 -0.041063,0.266782 -0.1193721,0.384989 -0.078372,0.119064 -0.1924129,0.209598 -0.3358965,0.273368 a 0.02646098,0.02646098 0 0 1 -0.00569,0.0021 h -0.0062 c -0.075229,0.03166 -0.1556623,0.05371 -0.2397786,0.06873 v 0.03256 0.265617 H 2.3983029 v -0.265617 -0.04082 c -0.1500161,-0.0293 -0.2795587,-0.08003 -0.381373,-0.160358 -0.1683994,-0.134097 -0.271534,-0.37275 -0.3141927,-0.611332 l -0.011885,-0.06253 a 0.02646098,0.02646098 0 0 1 0,-0.0021 0.02646098,0.02646098 0 0 1 0,-0.0015 0.02646098,0.02646098 0 0 1 0,-0.0062 0.02646098,0.02646098 0 0 1 0,-0.0016 0.02646098,0.02646098 0 0 1 0.00207,-0.0062 0.02646098,0.02646098 0 0 1 0.00207,-0.0021 0.02646098,0.02646098 0 0 1 0,-0.0015 0.02646098,0.02646098 0 0 1 0.00155,-0.0021 0.02646098,0.02646098 0 0 1 0.00207,-0.0021 0.02646098,0.02646098 0 0 1 0.0062,-0.0021 0.02646098,0.02646098 0 0 1 0.00155,-0.0016 0.02646098,0.02646098 0 0 1 0.00207,0 0.02646098,0.02646098 0 0 1 0.00569,-0.0026 0.02646098,0.02646098 0 0 1 0.00207,0 h 0.24443 0.2284095 a 0.02646098,0.02646098 0 0 1 0.00362,0 0.02646098,0.02646098 0 0 1 0.00207,0 0.02646098,0.02646098 0 0 1 0.0062,0.0026 0.02646098,0.02646098 0 0 1 0.00155,0.0016 0.02646098,0.02646098 0 0 1 0.00207,0.0021 0.02646098,0.02646098 0 0 1 0.00207,0 0.02646098,0.02646098 0 0 1 0.00207,0.0021 0.02646098,0.02646098 0 0 1 0.00155,0.0021 0.02646098,0.02646098 0 0 1 0.00207,0.0057 0.02646098,0.02646098 0 0 1 0.00207,0.0021 0.02646098,0.02646098 0 0 1 0,0.0057 l 0.00827,0.04496 c 0.018098,0.129087 0.063643,0.21682 0.1384935,0.27957 0.074597,0.06162 0.1838298,0.0956 0.336415,0.0956 0.1552522,0 0.2586064,-0.0324 0.3183255,-0.08217 0.06772,-0.05756 0.091467,-0.108967 0.091467,-0.177766 0,-0.06038 -0.015719,-0.09265 -0.070279,-0.128675 -0.011369,-0.0074 -0.050297,-0.02494 -0.1090375,-0.04496 -0.058743,-0.02002 -0.1377421,-0.04435 -0.2346113,-0.06873 a 0.02646098,0.02646098 0 0 1 -0.00258,0 c -0.2665439,-0.06731 -0.4507362,-0.1226 -0.564306,-0.1757 -0.1128051,-0.05492 -0.2039355,-0.133347 -0.2656152,-0.232027 -0.059142,-0.09858 -0.091985,-0.210645 -0.091985,-0.328145 0,-0.106921 0.027771,-0.207877 0.07648,-0.299207 0.049448,-0.0914 0.1167315,-0.168199 0.2010224,-0.22841 0.06635,-0.04865 0.1507967,-0.08567 0.2521797,-0.115238 0.032351,-0.0098 0.066312,-0.01534 0.099737,-0.02222 v -0.03824 z m 3.9020856,0.67231 c 0.2111824,0 0.4222115,0.08012 0.5818769,0.239779 0.3193203,0.319329 0.3193203,0.846491 0,1.16582 -0.3193309,0.319325 -0.844423,0.319327 -1.1637539,0 -0.3193283,-0.319327 -0.3193283,-0.846492 0,-1.16582 0.1596655,-0.159663 0.3706945,-0.239779 0.581877,-0.239779 z"></path></g></svg>