<svg height='100px' width='100px' xmlns="http://www.w3.org/2000/svg" viewBox="0 0 100 100" x="0px" y="0px"><circle cx="62.95" cy="65.25" r="5.17"></circle><circle cx="52.6" cy="78.19" r="5.17"></circle><circle cx="73.3" cy="78.19" r="5.17"></circle><circle cx="62.95" cy="91.13" r="5.17"></circle><circle cx="83.65" cy="91.13" r="5.17"></circle><circle cx="42.25" cy="91.13" r="5.17"></circle><path d="M58.37,30.13A16.55,16.55,0,0,0,46.4,46v2.45a2.83,2.83,0,0,0,2.83,2.83H76.67a2.83,2.83,0,0,0,2.83-2.83V46A16.55,16.55,0,0,0,67.39,30.09a28.14,28.14,0,0,0-56.22,1.74v60a4.5,4.5,0,0,0,9,0v-60a19.13,19.13,0,0,1,38.19-1.71Z"></path></svg>