<svg xmlns="http://www.w3.org/2000/svg" viewBox="0 0 100 100"><path d="M42.9 62.8c.7.4 1.5.7 2.3.7.9 0 1.8-.2 2.7-.7l16.2-9c1.6-.9 2.5-2.5 2.5-4.2 0-1.7-1.1-3.3-2.7-4.2l-16.2-8.2c-1.6-.8-3.4-.8-4.8.1-1.3.8-2 2.3-1.9 3.9V59c-.1 1.6.6 3 1.9 3.8zm2.1-3.7l.1-18.1c0-.3 0-.4.1-.4h.2c.1 0 .4 0 .6.2L62.2 49c.4.2.5.5.5.7 0 .2 0 .5-.4.7l-16.2 9c-.6.3-1 .2-1 .2-.1-.2-.1-.3-.1-.5zM89 29.5c0-4.1-3.4-7.5-7.5-7.5H68c-1.1 0-2 .9-2 2s.9 2 2 2h13.5c1.9 0 3.5 1.6 3.5 3.5V41c0 1.1.9 2 2 2s2-.9 2-2V29.5zM35 22H20.5c-4.1 0-7.5 3.4-7.5 7.5V41c0 1.1.9 2 2 2s2-.9 2-2V29.5c0-1.9 1.6-3.5 3.5-3.5H35c1.1 0 2-.9 2-2s-.9-2-2-2zM15 57c-1.1 0-2 .9-2 2v11.5c0 4.1 3.4 7.5 7.5 7.5H35c1.1 0 2-.9 2-2s-.9-2-2-2H20.5c-1.9 0-3.5-1.6-3.5-3.5V59c0-1.1-.9-2-2-2zM68 78h13.5c4.1 0 7.5-3.4 7.5-7.5V59c0-1.1-.9-2-2-2s-2 .9-2 2v11.5c0 1.9-1.6 3.5-3.5 3.5H68c-1.1 0-2 .9-2 2s.9 2 2 2z"/></svg>