<svg xmlns="http://www.w3.org/2000/svg" viewBox="0 0 50.4 50.4"><circle cx="8.664" cy="28.71" r="1.213"/><circle cx="8.664" cy="40.844" r="1.213"/><circle cx="41.079" cy="28.71" r="1.213"/><circle cx="41.079" cy="40.844" r="1.213"/><path d="M43.589 34.081l5.521-2.027-.044-11.98-5.477 2.009.003-17.739h-11.28V.035H18.358v4.308H7.274v17.854l-5.79-2.125-.045 11.98 5.834 2.141v1.216l-5.834 2.142.045 11.983 5.79-2.125v2.99h.072l15.165-.002v-6.75h5.871v6.75l15.205-.001v-2.873l5.479 2.011.044-11.983-5.521-2.026v-1.444zm3.713-3.285l-8.299 3.046-11.108-4.076 19.376-7.112.031 8.142zM32.512 9.883h5.848v5.848h-5.848V9.883zm0 9.696h5.848v4.423l-3.877 1.422h-1.971v-5.845zM22.508 9.883h5.85v5.848h-5.85V9.883zm0 9.695h5.85v5.851h-5.85v-5.851zM12.505 9.883h5.848v5.848h-5.848V9.883zm0 9.696h5.848v5.845h-2.286l-3.562-1.306v-4.539zm-9.257 19.23l8.299-3.046 11.109 4.078-19.377 7.114-.031-8.146zm44.022 8.146L3.248 30.796l.031-8.142L47.301 38.81l-.031 8.145z"/></svg>