<svg xmlns="http://www.w3.org/2000/svg" viewBox="0 0 100 100"><g><path d="M7.7 29.9h9v5.9c0 .4.3.7.7.7H21c.4 0 .7-.3.7-.7v-5.9h9c.9 0 1.4-1.1.8-1.8l-5.8-6.8H29c.9 0 1.4-1.1.8-1.8l-6.1-7.3h1.8c.9 0 1.4-1.1.8-1.8L20 3c-.4-.5-1.2-.5-1.7 0L12 10.5c-.6.7-.1 1.8.8 1.8h1.8l-6.1 7.3c-.6.7-.1 1.8.8 1.8h3.3l-5.8 6.8c-.6.6-.1 1.7.9 1.7zm30.8 0h9v5.9c0 .4.3.7.7.7h3.6c.4 0 .7-.3.7-.7v-5.9h9c.9 0 1.4-1.1.8-1.8l-5.8-6.8h3.3c.9 0 1.4-1.1.8-1.8l-6.1-7.3h1.8c.9 0 1.4-1.1.8-1.8L50.8 3c-.4-.5-1.2-.5-1.7 0l-6.3 7.5c-.6.7-.1 1.8.8 1.8h1.8l-6.1 7.3c-.6.7-.1 1.8.8 1.8h3.3l-5.8 6.8c-.5.6 0 1.7.9 1.7zm30.8 0h9v5.9c0 .4.3.7.7.7h3.6c.4 0 .7-.3.7-.7v-5.9h9c.9 0 1.4-1.1.8-1.8l-5.8-6.8h3.3c.9 0 1.4-1.1.8-1.8l-6.1-7.3h1.8c.9 0 1.4-1.1.8-1.8L81.7 3c-.4-.5-1.2-.5-1.7 0l-6.3 7.5c-.6.7-.1 1.8.8 1.8h1.8l-6.1 7.3c-.6.7-.1 1.8.8 1.8h3.3l-5.8 6.8c-.6.6-.1 1.7.8 1.7zm25.2 45.3c-2.9 0-4.1-.8-5.8-1.8-2-1.2-4.4-2.7-9-2.7s-7 1.5-9 2.7c-1.7 1-3 1.8-5.8 1.8-2.9 0-4.1-.8-5.8-1.8-2-1.2-4.4-2.7-9-2.7s-7 1.5-9 2.7c-1.7 1-3 1.8-5.8 1.8-2.9 0-4.1-.8-5.9-1.8-2-1.2-4.4-2.7-9-2.7s-7 1.5-9 2.7c-1.7 1-3 1.8-5.9 1.8-1.7 0-3 1.4-3 3s1.4 3 3 3c4.6 0 7-1.5 9-2.7 1.7-1 3-1.8 5.9-1.8 2.9 0 4.1.8 5.9 1.8 2 1.2 4.4 2.7 9 2.7s7-1.5 9-2.7c1.7-1 3-1.8 5.8-1.8 2.9 0 4.1.8 5.8 1.8 2 1.2 4.4 2.7 9 2.7s7-1.5 9-2.7c1.7-1 3-1.8 5.8-1.8s4.1.8 5.8 1.8c2 1.2 4.4 2.7 9 2.7 1.7 0 3-1.4 3-3s-1.4-3-3-3zm0 16.1c-2.9 0-4.1-.8-5.8-1.8-2-1.2-4.4-2.7-9-2.7s-7 1.5-9 2.7c-1.7 1-3 1.8-5.8 1.8-2.9 0-4.1-.8-5.8-1.8-2-1.2-4.4-2.7-9-2.7s-7 1.5-9 2.7c-1.7 1-3 1.8-5.8 1.8-2.9 0-4.1-.8-5.9-1.8-2-1.2-4.4-2.7-9-2.7s-7 1.5-9 2.7c-1.7 1-3 1.8-5.9 1.8-1.7 0-3 1.4-3 3 0 1.7 1.4 3 3 3 4.6 0 7-1.5 9-2.7 1.7-1 3-1.8 5.9-1.8 2.9 0 4.1.8 5.9 1.8 2 1.2 4.4 2.7 9 2.7s7-1.5 9-2.7c1.7-1 3-1.8 5.8-1.8 2.9 0 4.1.8 5.8 1.8 2 1.2 4.4 2.7 9 2.7s7-1.5 9-2.7c1.7-1 3-1.8 5.8-1.8s4.1.8 5.8 1.8c2 1.2 4.4 2.7 9 2.7 1.7 0 3-1.4 3-3s-1.4-3-3-3zm0-32.3c-2.9 0-4.1-.8-5.8-1.8-2-1.2-4.4-2.7-9-2.7s-7 1.5-9 2.7c-1.7 1-3 1.8-5.8 1.8-2.9 0-4.1-.8-5.8-1.8-2-1.2-4.4-2.7-9-2.7s-7 1.5-9 2.7c-1.7 1-3 1.8-5.8 1.8-2.9 0-4.1-.8-5.9-1.8-2-1.2-4.4-2.7-9-2.7s-7 1.5-9 2.7c-1.7 1-3 1.8-5.9 1.8-1.7 0-3 1.4-3 3s1.4 3 3 3c4.6 0 7-1.5 9-2.7 1.7-1 3-1.8 5.9-1.8 2.9 0 4.1.8 5.9 1.8 2 1.2 4.4 2.7 9 2.7s7-1.5 9-2.7c1.7-1 3-1.8 5.8-1.8 2.9 0 4.1.8 5.8 1.8 2 1.2 4.4 2.7 9 2.7s7-1.5 9-2.7c1.7-1 3-1.8 5.8-1.8s4.1.8 5.8 1.8c2 1.2 4.4 2.7 9 2.7 1.7 0 3-1.4 3-3s-1.4-3-3-3zm-89-11.1h89c1.7 0 3-1.4 3-3s-1.4-3-3-3h-89c-1.7 0-3 1.4-3 3s1.4 3 3 3z"/></g></svg>