<svg xmlns="http://www.w3.org/2000/svg" viewBox="0 0 64 64"><path d="M32 60h13V44H32zm9-11a1 1 0 012 0v4a1 1 0 01-2 0zM32 40h28v2H32zM47 60h13V44H47zm2-11a1 1 0 012 0v4a1 1 0 01-2 0zM4 57a3 3 0 003 3h16a3 3 0 003-3V34H4zm3-21h4a1 1 0 010 2H7a1 1 0 010-2zM23 16H7a3 3 0 00-3 3v13h22V19a3 3 0 00-3-3zM11 30H7a1 1 0 010-2h4a1 1 0 010 2zM32 19h13V4H32zm9-7a1 1 0 012 0v4a1 1 0 01-2 0zM47 4v15h13V4zm4 12a1 1 0 01-2 0v-4a1 1 0 012 0zM48.6 25.02a4.12 4.12 0 00-3.6 4.158V34h-2v-1a1 1 0 00-2 0v2a1 1 0 001 1h3v2h2v-9a2 2 0 012.338-1.972A2.08 2.08 0 0151 29.112V30a1 1 0 002 0v-1a4 4 0 00-4.4-3.98z"/></svg>