<svg xmlns="http://www.w3.org/2000/svg" data-name="Layer 1" viewBox="0 0 64 64"><path d="M58.37 41a4.13 4.13 0 00-3.5-2 4 4 0 00-1.87.5l-11 5.83v-1a4.3 4.3 0 00-1.21-3A10 10 0 0034 24a9.59 9.59 0 00-1.07.06 7 7 0 10-8.67 7.71A9.65 9.65 0 0024 34a9.91 9.91 0 002.67 6.8l-2.6.19-8.85-2h-.06l-6-1a1 1 0 00-1.16.85l-3 19A1 1 0 005.84 59l6 1H12a1 1 0 001-.8l.8-4 19.45 4.06a9.58 9.58 0 007.35-1.47l16.58-11.3A4.11 4.11 0 0058.37 41zM21 25a5 5 0 0110-.53l-.23.09-.41.15-.68.3-.39.2a7.23 7.23 0 00-.66.4l-.34.21a8.3 8.3 0 00-.8.64l-.2.17a9.39 9.39 0 00-.7.71c-.1.11-.19.23-.28.34s-.3.37-.43.56-.19.27-.28.41-.23.39-.34.59-.15.28-.22.42a1.51 1.51 0 00-.11.22A5 5 0 0121 25zm5 9a7.81 7.81 0 01.47-2.69 9.64 9.64 0 01.4-.93 8 8 0 015.34-4.18A8.32 8.32 0 0134 26a8 8 0 015 14.22.35.35 0 00-.11 0l-.44-.11h-.19a4.48 4.48 0 00-.64 0l-2.62.08v-.31a3.63 3.63 0 003-3.38 3.78 3.78 0 00-4-3.5c-1.08 0-2-.69-2-1.5s.92-1.5 2-1.5 2 .69 2 1.5h2a3.63 3.63 0 00-3-3.38V27h-2v1.12a3.63 3.63 0 00-3 3.38 3.78 3.78 0 004 3.5c1.08 0 2 .69 2 1.5s-.92 1.5-2 1.5-2-.69-2-1.5h-2a3.63 3.63 0 003 3.38v.46l-3.52.26A8 8 0 0126 34zM11.21 57.85l-4.07-.67 2.69-17 4 .68L12 53.83zM56 44.81l-16.54 11.3a7.66 7.66 0 01-5.83 1.17l-19.51-4.07 1.72-12L23.78 43a1.46 1.46 0 00.29 0l5.17-.38h.05L37.7 42a2.14 2.14 0 011 .26 2.27 2.27 0 011.26 2v1.77L27.92 47l.16 2 13-1a.92.92 0 00.39-.11l12.43-6.63a2 2 0 011-.24 2.07 2.07 0 011.78 1 2.09 2.09 0 01-.68 2.79zM30 4h2v12h-2zM38 12h2v11h-2zM22 8h2v8h-2z"/></svg>