<svg xmlns="http://www.w3.org/2000/svg" viewBox="0 0 32 32"><path d="M14.7773218 30.9998684H4.2538691c-.6642103 0-1.2043676-.5406151-1.2043676-1.2048264v-9.2888737c0-.3881798.3149393-.7031193.70312-.7031193s.70312.3149395.70312.7031193v9.0874596h10.1201668v-9.0874596c0-.3881798.3149385-.7031193.7031193-.7031193.3881817 0 .7031202.3149395.7031202.7031193v9.2888737c-6e-7.6642113-.5406157 1.2048264-1.204826 1.2048264z"/><path d="M1.7032282 23.2834015c-.1785265 0-.357053-.067749-.4939234-.2027874-.2764872-.2728252-.2792338-.7182274-.0064086-.994257l7.8125963-7.908267c.1322927-.1341238.3121929-.209197.5003319-.209197.1881399 0 .3680391.0750732.5003319.209197l7.8121386 7.908267c.2728252.2760296.2700787.7214317-.0064087.994257-.2755718.2719097-.7205143.2709942-.9942551-.0064087L9.5158243 15.672678l-7.312264 7.4015274c-.1377859.139616-.319059.2091961-.5003321.2091961zM11.7355042 30.9998684H7.2956867c-.3881807 0-.7031198-.3149395-.7031198-.7031212v-3.9060688c0-1.6117744 1.3114834-2.9232578 2.9232574-2.9232578s2.9228001 1.3114834 2.9228001 2.9232578v3.9060688c0 .3881817-.3149395.7031212-.7031202.7031212zm-3.7366977-1.4062405h3.0335784v-3.2029495c0-.8363285-.680232-1.5170174-1.5165606-1.5170174s-1.5170178.6806889-1.5170178 1.5170174v3.2029495z"/><path d="M30.296772 30.9998684H1.7032282c-.3881807 0-.7031199-.3149395-.7031199-.7031212 0-.3881798.3149391-.7031193.7031199-.7031193h28.593544c.3881798 0 .7031193.3149395.7031193.7031193-2e-7.3881817-.3149397.7031212-.7031195.7031212z"/><path d="M26.5467987 30.9998684H14.7773218c-.3881807 0-.7031193-.3149395-.7031193-.7031212 0-.3181419.2114849-.5873051.5017052-.6738224v-8.8279095l-5.5604153-5.6290789c-.1300039-.1313772-.2027884-.3089876-.2027884-.4939232V1.7032045c0-.3881809.3149395-.70312.7031202-.70312h17.0309753c.3881817 0 .7031193.3149391.7031193.70312v28.5935421c-8e-7.3881823-.3149384.7031218-.7031201.7031218zm-10.5646515-1.4062405h9.8615322V2.4063244H10.2189445v11.9768419l5.5604153 5.6290789c.1300039.1313782.2027874.3089886.2027874.4939232v9.0874595z"/><path d="M22.0937061 7.1720676h-8.1247892c-.3881807 0-.7031193-.314939-.7031193-.7031202 0-.3881807.3149385-.7031198.7031193-.7031198h8.1247892c.3881798 0 .7031193.314939.7031193.7031198 0 .3881812-.3149395.7031202-.7031193.7031202zM22.0937061 11.9373531h-8.1247892c-.3881807 0-.7031193-.3149395-.7031193-.7031202s.3149385-.7031202.7031193-.7031202h8.1247892c.3881798 0 .7031193.3149395.7031193.7031202s-.3149395.7031202-.7031193.7031202zM22.0937061 16.7030964h-8.1247892c-.3881807 0-.7031193-.3149395-.7031193-.7031202s.3149385-.7031202.7031193-.7031202h8.1247892c.3881798 0 .7031193.3149395.7031193.7031202s-.3149395.7031202-.7031193.7031202zM22.0937061 21.4688396h-3.407568c-.3881817 0-.7031212-.3149395-.7031212-.7031212 0-.3881798.3149395-.7031193.7031212-.7031193h3.407568c.3881798 0 .7031193.3149395.7031193.7031193 0 .3881817-.3149395.7031212-.7031193.7031212zM22.0937061 26.2341251h-4.335907c-.3881798 0-.7031193-.3149395-.7031193-.7031212 0-.3881798.3149395-.7031193.7031193-.7031193h4.335907c.3881798 0 .7031193.3149395.7031193.7031193 0 .3881817-.3149395.7031212-.7031193.7031212z"/></svg>