<svg xmlns="http://www.w3.org/2000/svg" role="presentation" aria-hidden="true" viewBox="0 0 87.52 87.49"><path d="M82.66 19L69.8 17.89 68.61 4.8A5.27 5.27 0 0062.85.02l-58 5.23A5.31 5.31 0 00.05 11l5.2 57.91a5.29 5.29 0 005.77 4.78l3.06-.27-.33 3.26a5.28 5.28 0 004.82 5.72l58.07 5.06a5.29 5.29 0 005.74-4.8l5.12-57.91A5.33 5.33 0 0082.66 19zm-71.8 33.48a1.35 1.35 0 01-1.45-1.19L5.9 12.23a1.31 1.31 0 011.19-1.43l54.53-4.9a1.35 1.35 0 011.45 1.19L64 17.4l-39.39-3.45a5.29 5.29 0 00-5.74 4.8l-2.91 33.26zM81.6 26l-3.42 39.06a1.32 1.32 0 01-1.43 1.21l-3.63-.31-50.91-4.44A1.32 1.32 0 0121 60.1l.75-8.58 2.67-30.48a1.34 1.34 0 011.43-1.22l38.67 3.38 5.8.51 10.08.88A1.27 1.27 0 0181.6 26z"/><path d="M69.02 45.21L54.41 27.75l-.3-.36a1.69 1.69 0 00-1-.43 1.65 1.65 0 00-1.08.27l-.31.25-17.3 14.5a1.91 1.91 0 00-.47.38 1.77 1.77 0 00-.4 1l-1.38 15.52a1.74 1.74 0 001.58 1.87h.07l11.55 1 .4-4.49.23-2.62v-.11a1.82 1.82 0 012-1.59h.13v-.13l5.28.47v.13a1.89 1.89 0 011.66 1.68v.37l-.23 2.62-.4 4.49 11.72 1a1.81 1.81 0 002-1.56l1.38-15.57a1.77 1.77 0 00-.52-1.23z"/></svg>