<svg xmlns="http://www.w3.org/2000/svg" xmlns:xlink="http://www.w3.org/1999/xlink" viewBox="0 0 100 100" width="100" height="100"><defs><clipPath id="_clipPath_77JBG1dQTwGDRkOzjS5KGhBKZgilKShW"><rect width="100" height="100"/></clipPath></defs><g clip-path="url(#_clipPath_77JBG1dQTwGDRkOzjS5KGhBKZgilKShW)"><g><g><path d=" M 5273.1 2400.1 L 5273.1 2398.1 C 5273.1 2395.3 5268.1 2394.1 5263.4 2394.1 C 5258.7 2394.1 5253.7 2395.4 5253.7 2398.1 L 5253.7 2400.1 C 5253.7 2401.9 5254.4 2403.7 5255.7 2405 L 5260.7 2409.9 C 5261 2410.2 5261.1 2410.5 5261.1 2410.9 L 5261.1 2417.3 C 5261.1 2417.7 5261.3 2418 5261.7 2418.1 L 5264.6 2419 C 5265.1 2419.1 5265.6 2418.8 5265.6 2418.2 L 5265.6 2411 C 5265.6 2410.6 5265.8 2410.3 5266 2410 L 5271.1 2405 C 5272.4 2403.7 5273.1 2401.9 5273.1 2400.1 Z  M 5263.4 2400 C 5258.6 2400 5256 2398.7 5255.9 2398.2 L 5255.9 2398.2 C 5256 2397.7 5258.6 2396.4 5263.4 2396.4 C 5268.2 2396.4 5270.7 2397.7 5270.9 2398.2 C 5270.7 2398.7 5268.2 2400 5263.4 2400 Z " /><path d=" M 5268.4 2410.3 C 5267.8 2410.3 5267.4 2410.7 5267.4 2411.3 C 5267.4 2411.9 5267.8 2412.3 5268.4 2412.3 L 5272.7 2412.3 C 5273.3 2412.3 5273.7 2411.9 5273.7 2411.3 C 5273.7 2410.7 5273.3 2410.3 5272.7 2410.3 L 5268.4 2410.3 Z " /><path d=" M 5272.7 2413.7 L 5268.4 2413.7 C 5267.8 2413.7 5267.4 2414.1 5267.4 2414.7 C 5267.4 2415.3 5267.8 2415.7 5268.4 2415.7 L 5272.7 2415.7 C 5273.3 2415.7 5273.7 2415.3 5273.7 2414.7 C 5273.7 2414.1 5273.3 2413.7 5272.7 2413.7 Z " /><path d=" M 5272.7 2417 L 5268.4 2417 C 5267.8 2417 5267.4 2417.4 5267.4 2418 C 5267.4 2418.6 5267.8 2419 5268.4 2419 L 5272.7 2419 C 5273.3 2419 5273.7 2418.6 5273.7 2418 C 5273.7 2417.5 5273.3 2417 5272.7 2417 Z " /></g><g><path d=" M 86.75 58.6 C 94.05 53.9 98.95 45.7 98.95 36.4 C 98.95 21.8 87.05 10 72.55 10 C 58.05 10 46.05 21.8 46.05 36.4 C 46.05 51 57.95 62.8 72.45 62.8 C 74.55 62.8 76.55 62.5 78.55 62.1 L 87.05 82.1 C 87.75 83.8 89.45 84.8 91.15 84.8 C 91.75 84.8 92.35 84.7 92.85 84.4 C 95.15 83.4 96.15 80.8 95.25 78.6 L 86.75 58.6 Z  M 54.95 36.4 C 54.95 26.7 62.85 18.9 72.45 18.9 C 82.15 18.9 89.95 26.8 89.95 36.4 C 89.95 46 82.05 53.9 72.45 53.9 C 62.85 53.9 54.95 46.1 54.95 36.4 Z " /></g><g/></g><path d=" M 1.05 47.5 L 1.05 2.5 L 46.05 2.5 Q 46.145 7.414 46.145 20.447 C 42.706 24.893 41.05 30.456 41.05 36.5 Q 41.05 40.859 43.05 47.5 L 1.05 47.5 Z " /><rect x="1.05" y="52.5" width="45" height="45" /><path d=" M 96.05 97.5 L 51.067 97.5 Q 51.067 75.512 51.067 59.5 C 58.769 66.594 65.987 68.563 75.55 67.5 L 84.05 87.1 C 85.487 89.609 86.12 90.031 91.15 89.8 Q 91.75 89.8 96.05 89.8 L 96.05 97.5 Z "/></g></svg>