<svg class="vf-icon" id="vestorfilter-icon" width="200" height="190" viewBox="0 0 200 190" version="1.1" xmlns="http://www.w3.org/2000/svg" xmlns:xlink="http://www.w3.org/1999/xlink" xml:space="preserve" xmlns:serif="http://www.serif.com/" style="fill-rule:evenodd;clip-rule:evenodd;stroke-linejoin:round;stroke-miterlimit:2;">
    <g transform="matrix(3.90832,0,0,3.90832,5,184.283)">
        <path d="M0,-45.872L15.31,-45.872L15.31,-45.629C14.902,-45.586 14.465,-45.485 13.999,-45.324C13.527,-45.16 13.115,-44.926 12.748,-44.621C12.38,-44.316 12.098,-43.951 11.894,-43.524C11.69,-43.097 11.651,-42.618 11.77,-42.089L19.703,-8.601L17.687,0L14.575,0C12.951,-6.67 11.283,-13.602 9.576,-20.8C7.868,-27.998 6.24,-34.931 4.696,-41.603C4.289,-42.943 3.648,-43.918 2.775,-44.529C1.896,-45.14 0.973,-45.485 0,-45.567L0,-45.872Z" style="fill-rule:nonzero;"/>
    </g>
    <g transform="matrix(3.90832,0,0,3.90832,188.094,184.283)">
        <path d="M0,-45.872L1.767,-40.26L-0.064,-40.26C-2.095,-42.822 -4.453,-44.693 -7.139,-45.872L0,-45.872ZM-7.198,-23.119C-6.588,-23.158 -6.071,-23.404 -5.645,-23.851C-5.218,-24.298 -4.86,-24.807 -4.577,-25.375C-4.294,-25.946 -4.081,-26.504 -3.937,-27.053C-3.793,-27.601 -3.703,-27.998 -3.664,-28.242L-1.589,-28.242L-1.589,-17.628L-3.664,-17.628C-3.907,-18.807 -4.17,-19.601 -4.453,-20.009C-4.781,-20.659 -5.178,-21.267 -5.645,-21.838C-6.111,-22.406 -6.633,-22.692 -7.198,-22.692L-7.198,-23.119ZM-12.262,-5.002C-12.262,-3.497 -11.89,-2.358 -11.135,-1.586C-10.381,-0.812 -9.397,-0.365 -8.177,-0.244L-8.177,0L-23.486,0L-23.486,-0.244C-22.265,-0.365 -21.282,-0.812 -20.527,-1.586C-19.778,-2.358 -19.4,-3.497 -19.4,-5.002L-19.4,-41.114C-19.4,-42.171 -19.594,-42.995 -19.981,-43.583C-20.368,-44.174 -20.805,-44.621 -21.292,-44.926C-21.778,-45.231 -22.245,-45.415 -22.691,-45.475C-23.144,-45.537 -23.406,-45.567 -23.486,-45.567L-23.486,-45.872L-12.262,-45.872L-12.262,-5.002Z" style="fill-rule:nonzero;"/>
    </g>
</svg>
